# xmcd CD database file
#
# Track frame offsets:
#	150
#	37710
#	60832
#	90135
#	121452
#	143383
#	189638
#	234024
#
# Disc length: 3606 seconds
#
# Revision: 0
# Processed by: cddbd v1.5.2PL0 Copyright (c) Steve Scherf et al.
# Submitted via: CDex 1.51
#
DISCID=4b0e1408
DTITLE=Michael Wolff - Joe's Strut
DYEAR=2008
DGENRE=Jazz
TTITLE0=Harbour Island (Michael Wolff)
TTITLE1=Joe's Strut (Michael Wolff)
TTITLE2=Wheel of Life (Michael Wolf)
TTITLE3=If I were a Bell (Frank Loesser)
TTITLE4=The Third You (Michael Wolff)
TTITLE5=Freedom (Michael Wolff)
TTITLE6=Come Rain or Come Shine (Harold Arlen)
TTITLE7=74 Miles Away (Joe Zawinul)
EXTD=YEAR: 2008
EXTT0=
EXTT1=
EXTT2=
EXTT3=
EXTT4=
EXTT5=
EXTT6=
EXTT7=
PLAYORDER=
